#!OML:ASF E:/inclinewalkrobotboard/Project1/Captureday1/Session1/subject1.ASF
:FULLY-SPECIFIED
:DEGREES
13
root 0 0 0 -0.28408643071185424 -3.090030260482042 0.03633550598749202
lowerback 11.304300136673179 0.6730640508081914 0.35157334868911727
upperback -2.235172697437174 0.9582964028933783 0.3634834582588091
thorax -8.744151913408594 0.44302000339975245 -0.012974260341046095
lowerneck -10.793909912346022 -0.3736387934803147 1.7304698598134398
upperneck 18.81586435167895 0.14198222431980723 -4.405303688461997
head 7.703222104376059 -0.14229104436844042 -1.758700098860059
rclavicle -5.232489927881607E-16 -6.428755368410251E-16
rhumerus 1.172867158739157 2.0340109149725034 -59.200473001258445
rradius 54.89816766601275
rwrist 18.224989603401774
rhand -27.806887086661025 -26.135026905257874
rfingers 7.125019999999932
rthumb -1.3619055221654746 -56.236530357633285
lclavicle -4.957137875816032E-16 -6.996238382546528E-16
lhumerus -1.074359190275402 -6.971045201007893 60.32027520068386
lradius 52.807650812759306
lwrist -11.254847737613876
lhand -37.34794414597044 -31.616695229070658
lfingers 7.125019999999921
lthumb -10.44590632881103 -2.0731851310680547
rfemur -21.348255996350048 -0.3360611932170712 19.56113149331854
rtibia 50.614917036630764
rfoot -22.746947045735123 -13.838003096867226
rtoes -12.201321597410008
lfemur -23.14989934810492 1.5491442010857293 -18.13644527920916
ltibia 50.11584885657292
lfoot -25.96751805598364 -3.646184470600991
ltoes -16.718918267029288
14
root 0 0 0 -0.2766103745469086 -3.087752617729587 0.048865607975767555
lowerback 11.306992172889492 0.6713859821819059 0.3457649510316134
upperback -2.2443907285029585 0.9558667826418752 0.3596853478024069
thorax -8.756766419122872 0.4426766259144792 -0.013597936047511305
lowerneck -10.77276181018927 -0.3622008646790684 1.7435981677235561
upperneck 18.81352808870981 0.15647832927405658 -4.42332983888447
head 7.698797467291522 -0.1366621097090711 -1.765526119202081
rclavicle -5.223673204462293E-16 -6.447051290059174E-16
rhumerus 1.3062512538123112 2.120615256597377 -59.11981167191003
rradius 55.02143268804546
rwrist 18.288254854044958
rhand -27.8518459121051 -26.348195135244644
rfingers 7.125019999999933
rthumb -1.4041397065355383 -56.45004980799108
lclavicle -4.8749351199732365E-16 -7.027809705496836E-16
lhumerus -0.49475741298081743 -7.11117484646015 59.91531400439637
lradius 53.25389952831367
lwrist -11.555409628175646
lhand -37.5404019944193 -32.62872536252468
lfingers 7.125019999999924
lthumb -10.630609016481838 -3.0896769104212467
rfemur -21.537622696054807 -0.44834001734470785 19.408667698446873
rtibia 50.85596935730841
rfoot -23.081552902121917 -14.001621786668867
rtoes -12.555046442258725
lfemur -23.088183638085226 1.5349301672323172 -18.14457972608934
ltibia 50.04950756436583
lfoot -25.88780736070589 -3.644724992791985
ltoes -16.66885580637357
15
root 0 0 0 -0.2769158333420083 -3.083753028093917 0.052622107188252776
lowerback 11.306718784757457 0.6688904230248726 0.342355678879952
upperback -2.243571282149408 0.9529365569596924 0.3603787881079815
thorax -8.756581121733298 0.44207643357843884 -0.010623785039080402
lowerneck -10.773066575769032 -0.36016069942180406 1.7434131526805123
upperneck 18.812826270779393 0.1571990016396425 -4.423798163613049
head 7.698552826741117 -0.13695323354932887 -1.7657218807440562
rclavicle -5.22252357337164E-16 -6.46298597721113E-16
rhumerus 1.4015686169280919 2.1824529196484086 -59.0612004293435
rradius 55.11003828947253
rwrist 18.334369699340233
rhand -27.884385011757715 -26.502288695088914
rfingers 7.125019999999933
rthumb -1.435002625074378 -56.605840698835564
lclavicle -4.802469286564436E-16 -7.060690638415509E-16
lhumerus 0.021460335606850123 -7.23618919162556 59.55501747541901
lradius 53.65325751431589
lwrist -11.823246734086219
lhand -37.71226609707089 -33.529539243111614
lfingers 7.125019999999926
lthumb -10.79531429092447 -3.996328531399193
rfemur -21.692448394000294 -0.5395881869902919 19.284448109749636
rtibia 51.0514648211919
rfoot -23.353901251190592 -14.134574867433574
rtoes -12.842453093384027
lfemur -23.04752581591825 1.5258281973926058 -18.15058747857839
ltibia 50.00797485512994
lfoot -25.836784915496604 -3.644245752358844
ltoes -16.63793950418605
16
root 0 0 0 -0.2833747757476718 -3.0785658606312283 0.049166587684190355
lowerback 11.304065621224952 0.6658653554702936 0.3410245478745485
upperback -2.234757141582554 0.9497949077908339 0.3646525975991173
thorax -8.746172339977967 0.4413061014654717 -0.004875648332817117
lowerneck -10.790568406838016 -0.365710794913251 1.73260916145269
upperneck 18.813525523730593 0.146799554708966 -4.410169715568541
head 7.701724462131418 -0.14199426791300507 -1.760629147755754
rclavicle -5.224373998026884E-16 -6.473326806250031E-16
rhumerus 1.4535453326159278 2.2158389508139695 -59.02869826929874
rradius 55.158672238398935
rwrist 18.36038049552051
rhand -27.902386648836583 -26.58708915032345
rfingers 7.125019999999933
rthumb -1.4522649537375427 -56.692503162968016
lclavicle -4.740202559109989E-16 -7.087737468602178E-16
lhumerus 0.4590741618199363 -7.342358267150285 59.249968371330446
lradius 53.99194527423095
lwrist -12.050095569971107
lhand -37.857868860100986 -34.29305982037976
lfingers 7.125019999999928
lthumb -10.934877805174795 -4.764492559680075
rfemur -21.80974135891879 -0.607992104445251 19.1908407337135
rtibia 51.197320282324064
rfoot -23.558586499117624 -14.234674998062982
rtoes -13.05858008764379
lfemur -23.025762883788325 1.5212958183017125 -18.15435991717982
ltibia 49.98913005733462
lfoot -25.8117716578913 -3.6446789492584344
ltoes -16.62377365408738
17
root 0 0 0 -0.2950623141761115 -3.0725886593466853 0.03933832009439209
lowerback 11.299403150587558 0.6625266109909436 0.3416647575640478
upperback -2.2191697772280152 0.9466372201648958 0.3719423155732122
thorax -8.727088071654718 0.44042094824397404 0.0030736705087162086
lowerneck -10.822700544767077 -0.3778311581860476 1.7127971286672856
upperneck 18.815447593185965 0.12689876950526102 -4.384503312096438
head 7.707813729432901 -0.15107194227452636 -1.7510237013645218
rclavicle -5.231144197326988E-16 -6.477720466646947E-16
rhumerus 1.4685982812114844 2.224975820717951 -59.01850702049124
rradius 55.173124753166604
rwrist 18.36913678048511
rhand -27.90795200628087 -26.61277903375212
rfingers 7.125019999999933
rthumb -1.4578596217776205 -56.72021792829416
lclavicle -4.689250501741415E-16 -7.107747868779664E-16
lhumerus 0.8053475440175415 -7.426512996466421 59.008929574368494
lradius 54.25996531223764
lwrist -12.229408052254763
lhand -37.97296620172305 -34.89690133308837
lfingers 7.12501999999993
lthumb -11.045234730041726 -5.371916561708904
rfemur -21.88847264832604 -0.6531923288799728 19.128531691357757
rtibia 51.293031360267236
rfoot -23.694355347380903 -14.301242272431423
rtoes -13.201964794596716
lfemur -23.023761217171504 1.521491650445688 -18.155787750566045
ltibia 49.993464119648664
lfoot -25.813655755228154 -3.646005124093558
ltoes -16.62688290139858
